<svg xmlns="http://www.w3.org/2000/svg" xmlns:xlink="http://www.w3.org/1999/xlink" width="1366" zoomAndPan="magnify" viewBox="0 0 1024.5 576" height="768" preserveAspectRatio="xMidYMid meet" version="1.0"><defs><g/><clipPath id="ef63d16f1c"><path d="M 0 0.140625 L 1024 0.140625 L 1024 575.859375 L 0 575.859375 Z M 0 0.140625 " clip-rule="nonzero"/></clipPath></defs><g clip-path="url(#ef63d16f1c)"><path fill="#ffffff" d="M 0 0.140625 L 1024 0.140625 L 1024 575.859375 L 0 575.859375 Z M 0 0.140625 " fill-opacity="1" fill-rule="nonzero"/><path fill="#f0ecec" d="M 0 0.140625 L 1024 0.140625 L 1024 575.859375 L 0 575.859375 Z M 0 0.140625 " fill-opacity="1" fill-rule="nonzero"/></g><g fill="#f45999" fill-opacity="1"><g transform="translate(429.133174, 107.188202)"><g><path d="M 23.734375 -18.578125 C 23.703125 -18.835938 23.878906 -19.078125 24.265625 -19.296875 C 24.660156 -19.523438 25.414062 -19.640625 26.53125 -19.640625 C 27.644531 -19.640625 28.640625 -19.398438 29.515625 -18.921875 C 32.210938 -20.046875 34.632812 -22.070312 36.78125 -25 C 38.90625 -27.914062 39.929688 -30.570312 39.859375 -32.96875 C 39.796875 -34.53125 39.175781 -35.867188 38 -36.984375 C 33.195312 -33.742188 28.238281 -28.40625 23.125 -20.96875 C 15.207031 -9.875 8.3125 -3.21875 2.4375 -1 C 0.613281 -0.289062 -0.953125 0.0625 -2.265625 0.0625 C -3.585938 0.0625 -4.640625 -0.0390625 -5.421875 -0.25 C -6.203125 -0.457031 -6.851562 -0.742188 -7.375 -1.109375 C -8.375 -1.835938 -8.875 -2.785156 -8.875 -3.953125 C -8.875 -5.160156 -8.28125 -5.929688 -7.09375 -6.265625 C -6.757812 -6.347656 -6.4375 -6.390625 -6.125 -6.390625 C -5.8125 -6.390625 -5.492188 -6.28125 -5.171875 -6.0625 C -4.847656 -5.84375 -4.6875 -5.519531 -4.6875 -5.09375 C -4.6875 -4.664062 -4.847656 -4.304688 -5.171875 -4.015625 C -5.492188 -3.722656 -5.914062 -3.578125 -6.4375 -3.578125 C -6.96875 -3.578125 -7.390625 -3.679688 -7.703125 -3.890625 L -7.703125 -3.71875 C -7.703125 -2.84375 -7.289062 -2.128906 -6.46875 -1.578125 C -5.644531 -1.035156 -4.648438 -0.765625 -3.484375 -0.765625 C -2.328125 -0.765625 -1.359375 -0.847656 -0.578125 -1.015625 C 0.191406 -1.191406 1 -1.519531 1.84375 -2 C 2.6875 -2.476562 3.578125 -3.140625 4.515625 -3.984375 C 5.453125 -4.835938 6.503906 -5.9375 7.671875 -7.28125 C 8.835938 -8.632812 10.164062 -10.269531 11.65625 -12.1875 L 16.71875 -18.96875 C 20.894531 -24.832031 25.617188 -29.753906 30.890625 -33.734375 C 33.703125 -35.859375 35.710938 -37.222656 36.921875 -37.828125 C 34.554688 -39.410156 31.070312 -40.203125 26.46875 -40.203125 C 22.175781 -40.203125 17.976562 -39.253906 13.875 -37.359375 C 10.144531 -35.617188 7.117188 -33.394531 4.796875 -30.6875 C 2.492188 -27.96875 1.382812 -25.390625 1.46875 -22.953125 C 1.5 -21.523438 2.046875 -20.414062 3.109375 -19.625 C 3.921875 -19 4.898438 -18.6875 6.046875 -18.6875 C 7.203125 -18.6875 8.378906 -19 9.578125 -19.625 C 10.785156 -20.25 11.945312 -21.0625 13.0625 -22.0625 C 14.175781 -23.070312 15.222656 -24.195312 16.203125 -25.4375 C 17.191406 -26.675781 18.066406 -27.910156 18.828125 -29.140625 C 20.410156 -31.691406 21.289062 -33.71875 21.46875 -35.21875 C 21.519531 -35.882812 21.644531 -36.21875 21.84375 -36.21875 C 22.039062 -36.21875 22.148438 -36.144531 22.171875 -36 C 22.191406 -35.851562 22.207031 -35.410156 22.21875 -34.671875 C 22.238281 -33.929688 22.09375 -32.90625 21.78125 -31.59375 C 21.46875 -30.289062 20.992188 -28.992188 20.359375 -27.703125 C 19.722656 -26.410156 18.929688 -25.175781 17.984375 -24 C 17.046875 -22.832031 15.972656 -21.800781 14.765625 -20.90625 C 12.128906 -18.914062 9.195312 -17.921875 5.96875 -17.921875 C 4.625 -17.921875 3.394531 -18.367188 2.28125 -19.265625 C 1.113281 -20.222656 0.503906 -21.457031 0.453125 -22.96875 C 0.398438 -24.476562 0.734375 -25.992188 1.453125 -27.515625 C 2.179688 -29.046875 3.1875 -30.484375 4.46875 -31.828125 C 5.75 -33.171875 7.253906 -34.410156 8.984375 -35.546875 C 10.722656 -36.679688 12.578125 -37.65625 14.546875 -38.46875 C 18.710938 -40.175781 22.945312 -41.03125 27.25 -41.03125 C 31.550781 -41.03125 35.078125 -40.128906 37.828125 -38.328125 C 40.722656 -39.796875 42.84375 -40.53125 44.1875 -40.53125 C 44.5625 -40.53125 44.75 -40.453125 44.75 -40.296875 C 44.757812 -40.140625 44.707031 -40.019531 44.59375 -39.9375 C 44.476562 -39.863281 44.144531 -39.773438 43.59375 -39.671875 C 42.382812 -39.460938 40.816406 -38.757812 38.890625 -37.5625 C 41.148438 -35.726562 42.335938 -33.378906 42.453125 -30.515625 C 42.578125 -28.015625 41.535156 -25.625 39.328125 -23.34375 C 37.078125 -21 34.117188 -19.289062 30.453125 -18.21875 C 31.015625 -17.625 31.3125 -16.925781 31.34375 -16.125 C 31.375 -15.332031 31.328125 -14.613281 31.203125 -13.96875 C 31.085938 -13.320312 30.828125 -12.609375 30.421875 -11.828125 C 29.617188 -10.304688 27.960938 -8.285156 25.453125 -5.765625 C 24.296875 -4.804688 23.738281 -3.851562 23.78125 -2.90625 C 23.78125 -1.476562 24.800781 -0.765625 26.84375 -0.765625 C 29.226562 -0.765625 31.703125 -2.019531 34.265625 -4.53125 C 36.859375 -7.132812 38.789062 -10.3125 40.0625 -14.0625 C 40.238281 -14.644531 40.375 -14.9375 40.46875 -14.9375 C 40.820312 -14.9375 41 -14.507812 41 -13.65625 C 41 -12.8125 40.773438 -11.820312 40.328125 -10.6875 C 39.890625 -9.550781 39.300781 -8.457031 38.5625 -7.40625 C 37.820312 -6.351562 36.960938 -5.375 35.984375 -4.46875 C 35.003906 -3.5625 33.976562 -2.773438 32.90625 -2.109375 C 30.644531 -0.660156 28.648438 0.0625 26.921875 0.0625 C 25.191406 0.0625 23.894531 -0.273438 23.03125 -0.953125 C 22.175781 -1.628906 21.726562 -2.5 21.6875 -3.5625 C 21.65625 -4.625 21.785156 -5.613281 22.078125 -6.53125 C 22.367188 -7.445312 22.765625 -8.300781 23.265625 -9.09375 C 23.765625 -9.882812 24.328125 -10.617188 24.953125 -11.296875 L 26.765625 -13.265625 C 28.148438 -14.398438 28.929688 -15.40625 29.109375 -16.28125 C 29.148438 -16.53125 29.171875 -16.796875 29.171875 -17.078125 C 29.171875 -17.347656 29.109375 -17.597656 28.984375 -17.828125 C 28.085938 -17.617188 27.207031 -17.515625 26.34375 -17.515625 C 25.488281 -17.515625 24.847656 -17.625 24.421875 -17.84375 C 23.992188 -18.070312 23.765625 -18.316406 23.734375 -18.578125 Z M 28.3125 -18.5 C 27.769531 -18.8125 27.046875 -18.96875 26.140625 -18.96875 C 25.242188 -18.96875 24.796875 -18.890625 24.796875 -18.734375 C 24.796875 -18.367188 25.195312 -18.1875 26 -18.1875 C 26.800781 -18.1875 27.570312 -18.289062 28.3125 -18.5 Z M 28.3125 -18.5 "/></g></g></g><g fill="#f45999" fill-opacity="1"><g transform="translate(473.22413, 107.188202)"><g><path d="M 11.3125 -2.53125 C 10.070312 -1.738281 8.734375 -1.085938 7.296875 -0.578125 C 5.867188 -0.078125 4.507812 0.171875 3.21875 0.171875 C 1.925781 0.171875 0.941406 0.0390625 0.265625 -0.21875 C -0.398438 -0.476562 -0.945312 -0.84375 -1.375 -1.3125 C -3.207031 -3.300781 -3.195312 -6.238281 -1.34375 -10.125 C -0.539062 -11.84375 0.664062 -13.410156 2.28125 -14.828125 C 3.90625 -16.242188 5.332031 -17.304688 6.5625 -18.015625 C 8.9375 -19.378906 11.171875 -20.0625 13.265625 -20.0625 C 15.335938 -20.0625 16.421875 -19.414062 16.515625 -18.125 C 16.648438 -16.039062 14.113281 -13.765625 8.90625 -11.296875 C 6.988281 -10.398438 4.578125 -9.472656 1.671875 -8.515625 C 0.515625 -6.640625 -0.0625 -5.113281 -0.0625 -3.9375 C -0.0625 -2.757812 0.242188 -1.921875 0.859375 -1.421875 C 1.472656 -0.921875 2.367188 -0.671875 3.546875 -0.671875 C 4.734375 -0.671875 6.015625 -0.925781 7.390625 -1.4375 C 8.765625 -1.945312 10.050781 -2.585938 11.25 -3.359375 C 12.457031 -4.140625 13.546875 -4.988281 14.515625 -5.90625 C 15.492188 -6.832031 16.359375 -7.710938 17.109375 -8.546875 C 17.867188 -9.390625 18.484375 -10.117188 18.953125 -10.734375 C 19.429688 -11.347656 19.757812 -11.734375 19.9375 -11.890625 L 20.5625 -11.390625 C 20.300781 -11.171875 19.910156 -10.726562 19.390625 -10.0625 C 18.878906 -9.40625 18.226562 -8.648438 17.4375 -7.796875 C 16.644531 -6.953125 15.734375 -6.0625 14.703125 -5.125 C 13.679688 -4.1875 12.550781 -3.320312 11.3125 -2.53125 Z M 2.34375 -9.546875 C 8.238281 -11.617188 12.035156 -13.675781 13.734375 -15.71875 C 14.296875 -16.40625 14.578125 -17.070312 14.578125 -17.71875 C 14.578125 -18.8125 14.070312 -19.359375 13.0625 -19.359375 C 11.257812 -19.359375 9.015625 -17.785156 6.328125 -14.640625 C 4.453125 -12.453125 3.125 -10.753906 2.34375 -9.546875 Z M 2.34375 -9.546875 "/></g></g></g><g fill="#f45999" fill-opacity="1"><g transform="translate(492.956736, 107.188202)"><g><path d="M 9.015625 -5.390625 C 9.253906 -5.347656 9.550781 -5.328125 9.90625 -5.328125 C 10.269531 -5.328125 10.703125 -5.460938 11.203125 -5.734375 C 11.710938 -6.015625 12.238281 -6.367188 12.78125 -6.796875 C 13.320312 -7.222656 13.851562 -7.691406 14.375 -8.203125 C 14.90625 -8.722656 15.390625 -9.222656 15.828125 -9.703125 C 16.265625 -10.179688 16.648438 -10.617188 16.984375 -11.015625 L 17.65625 -11.890625 L 18.296875 -11.390625 C 18.066406 -11.160156 17.765625 -10.835938 17.390625 -10.421875 L 16.15625 -9.015625 C 13.445312 -6.085938 11.300781 -4.625 9.71875 -4.625 L 9.21875 -4.625 C 9.0625 -4.625 8.90625 -4.644531 8.75 -4.6875 C 7.113281 -1.113281 3.628906 0.671875 -1.703125 0.671875 C -4.023438 0.671875 -5.710938 0.113281 -6.765625 -1 C -7.210938 -1.488281 -7.4375 -2.113281 -7.4375 -2.875 C -7.4375 -3.632812 -7.253906 -4.28125 -6.890625 -4.8125 C -6.535156 -5.351562 -6.113281 -5.800781 -5.625 -6.15625 C -4.625 -6.875 -3.726562 -7.234375 -2.9375 -7.234375 C -2.144531 -7.234375 -1.75 -6.863281 -1.75 -6.125 C -1.8125 -5.613281 -2.242188 -5.234375 -3.046875 -4.984375 C -3.296875 -4.898438 -3.539062 -4.859375 -3.78125 -4.859375 C -4.03125 -4.859375 -4.265625 -4.941406 -4.484375 -5.109375 C -4.710938 -5.273438 -4.894531 -5.394531 -5.03125 -5.46875 C -5.15625 -5.351562 -5.304688 -5.21875 -5.484375 -5.0625 C -5.671875 -4.90625 -5.851562 -4.722656 -6.03125 -4.515625 C -6.457031 -3.984375 -6.671875 -3.4375 -6.671875 -2.875 C -6.671875 -2.320312 -6.484375 -1.878906 -6.109375 -1.546875 C -5.742188 -1.210938 -5.304688 -0.960938 -4.796875 -0.796875 C -4.035156 -0.515625 -3.238281 -0.375 -2.40625 -0.375 C -1.582031 -0.375 -0.726562 -0.550781 0.15625 -0.90625 C 1.050781 -1.257812 1.925781 -1.847656 2.78125 -2.671875 C 5.144531 -4.910156 6.425781 -8.238281 6.625 -12.65625 C 6.738281 -15.613281 7.097656 -17.9375 7.703125 -19.625 C 7.722656 -19.675781 7.734375 -19.757812 7.734375 -19.875 L 0.8125 -11.390625 C 0.425781 -10.921875 0.140625 -10.617188 -0.046875 -10.484375 C -0.234375 -10.347656 -0.328125 -10.28125 -0.328125 -10.28125 C -0.554688 -10.257812 -0.710938 -10.316406 -0.796875 -10.453125 C -0.828125 -10.546875 -0.738281 -10.734375 -0.53125 -11.015625 C 4.507812 -17.023438 7.34375 -20.441406 7.96875 -21.265625 C 8.28125 -22.785156 8.785156 -23.546875 9.484375 -23.546875 C 9.816406 -23.546875 10.09375 -23.457031 10.3125 -23.28125 C 10.539062 -23.101562 10.65625 -22.878906 10.65625 -22.609375 C 10.632812 -22.234375 10.335938 -21.707031 9.765625 -21.03125 C 9.191406 -20.363281 8.835938 -19.9375 8.703125 -19.75 C 8.578125 -19.5625 8.492188 -19.40625 8.453125 -19.28125 C 8.421875 -19.15625 8.40625 -19.035156 8.40625 -18.921875 L 8.40625 -18.5625 C 8.382812 -18.039062 8.429688 -17.414062 8.546875 -16.6875 L 9.28125 -11.828125 C 9.707031 -9.171875 9.617188 -7.023438 9.015625 -5.390625 Z M 9.015625 -5.390625 "/></g></g></g><g fill="#f45999" fill-opacity="1"><g transform="translate(510.405747, 107.188202)"><g><path d="M -2.375 -1.734375 C -2.375 -1.023438 -1.90625 -0.671875 -0.96875 -0.671875 C 0.34375 -0.671875 1.75 -1.171875 3.25 -2.171875 C 6.488281 -4.335938 9.863281 -7.578125 13.375 -11.890625 C 13.375 -11.890625 15.59375 -14.550781 20.03125 -19.875 C 20.96875 -19.757812 21.816406 -19.703125 22.578125 -19.703125 C 23.335938 -19.703125 23.972656 -19.734375 24.484375 -19.796875 L 21.609375 -16.484375 L 11.25 -3.859375 C 10.5625 -3.023438 10.21875 -2.34375 10.21875 -1.8125 C 10.21875 -1.113281 10.6875 -0.765625 11.625 -0.765625 C 12.5625 -0.765625 13.53125 -1.007812 14.53125 -1.5 C 15.539062 -2 16.546875 -2.628906 17.546875 -3.390625 C 18.554688 -4.148438 19.539062 -4.984375 20.5 -5.890625 C 21.457031 -6.804688 22.328125 -7.671875 23.109375 -8.484375 L 26.171875 -11.890625 L 26.765625 -11.390625 L 25.625 -10.109375 C 25.050781 -9.460938 24.359375 -8.71875 23.546875 -7.875 L 20.8125 -5.21875 C 17.082031 -1.695312 13.988281 0.0625 11.53125 0.0625 C 10.738281 0.0625 10.082031 -0.15625 9.5625 -0.59375 C 9.039062 -1.039062 8.757812 -1.632812 8.71875 -2.375 C 8.6875 -3.800781 9.1875 -5.410156 10.21875 -7.203125 C 5.726562 -2.359375 1.921875 0.0625 -1.203125 0.0625 C -2.953125 0.0625 -4.070312 -0.5625 -4.5625 -1.8125 C -4.695312 -2.164062 -4.773438 -2.613281 -4.796875 -3.15625 C -4.816406 -3.707031 -4.6875 -4.363281 -4.40625 -5.125 C -4.125 -5.882812 -3.695312 -6.707031 -3.125 -7.59375 C -2.5625 -8.488281 -1.867188 -9.453125 -1.046875 -10.484375 L 4.21875 -16.859375 C 5.039062 -17.878906 5.910156 -18.882812 6.828125 -19.875 C 7.585938 -19.757812 8.203125 -19.703125 8.671875 -19.703125 L 9.65625 -19.703125 C 10.5 -19.703125 11.035156 -19.734375 11.265625 -19.796875 C 8.984375 -17.296875 7.382812 -15.488281 6.46875 -14.375 L 0.640625 -7.375 C -1.410156 -5 -2.414062 -3.117188 -2.375 -1.734375 Z M -2.375 -1.734375 "/></g></g></g><g fill="#f45999" fill-opacity="1"><g transform="translate(536.37433, 107.188202)"><g><path d="M 1.03125 -0.5625 C 0.570312 -0.65625 0.00390625 -0.703125 -0.671875 -0.703125 C -1.859375 -0.703125 -2.773438 -0.601562 -3.421875 -0.40625 L 6.734375 -14.9375 C 8.003906 -16.707031 8.660156 -17.757812 8.703125 -18.09375 C 8.773438 -18.738281 8.566406 -19.0625 8.078125 -19.0625 C 7.359375 -19.0625 5.5625 -17.273438 2.6875 -13.703125 L 0.8125 -11.390625 C 0.65625 -11.304688 0.492188 -11.347656 0.328125 -11.515625 C 0.171875 -11.679688 0.128906 -11.804688 0.203125 -11.890625 C 0.765625 -12.492188 1.398438 -13.257812 2.109375 -14.1875 C 2.828125 -15.113281 3.578125 -16.003906 4.359375 -16.859375 C 6.273438 -18.992188 7.867188 -20.0625 9.140625 -20.0625 C 11.285156 -20.0625 11.96875 -18.957031 11.1875 -16.75 C 11.03125 -16.28125 10.6875 -15.675781 10.15625 -14.9375 L 4.015625 -6.390625 L 4.15625 -6.0625 C 9.40625 -12.132812 13.257812 -16.054688 15.71875 -17.828125 C 17.675781 -19.316406 19.484375 -20.0625 21.140625 -20.0625 C 22.273438 -20.0625 23.171875 -19.75 23.828125 -19.125 C 24.359375 -18.59375 24.609375 -18.035156 24.578125 -17.453125 C 24.546875 -16.867188 24.503906 -16.425781 24.453125 -16.125 C 24.410156 -15.820312 24.34375 -15.515625 24.25 -15.203125 C 24.007812 -14.554688 23.597656 -13.773438 23.015625 -12.859375 C 27.191406 -17.109375 30.351562 -19.457031 32.5 -19.90625 C 32.925781 -20.007812 33.398438 -20.0625 33.921875 -20.0625 C 34.441406 -20.0625 34.921875 -19.972656 35.359375 -19.796875 C 35.796875 -19.617188 36.148438 -19.394531 36.421875 -19.125 C 36.929688 -18.613281 37.179688 -18 37.171875 -17.28125 C 37.160156 -16.570312 37.023438 -15.847656 36.765625 -15.109375 C 36.503906 -14.367188 36.0625 -13.488281 35.4375 -12.46875 C 34.125 -10.382812 31.914062 -7.660156 28.8125 -4.296875 C 27.519531 -2.953125 26.84375 -2.164062 26.78125 -1.9375 C 26.726562 -1.71875 26.703125 -1.550781 26.703125 -1.4375 L 26.5 -1.40625 C 26.5 -0.9375 27.054688 -0.703125 28.171875 -0.703125 C 29.285156 -0.703125 30.304688 -0.953125 31.234375 -1.453125 C 32.160156 -1.953125 33.097656 -2.585938 34.046875 -3.359375 C 35.003906 -4.128906 35.9375 -4.972656 36.84375 -5.890625 C 37.757812 -6.804688 38.585938 -7.671875 39.328125 -8.484375 L 41.203125 -10.65625 C 41.703125 -11.28125 42.039062 -11.691406 42.21875 -11.890625 L 42.84375 -11.390625 C 42.644531 -11.191406 42.273438 -10.765625 41.734375 -10.109375 C 41.203125 -9.460938 40.550781 -8.707031 39.78125 -7.84375 C 39.007812 -6.988281 38.144531 -6.09375 37.1875 -5.15625 C 36.226562 -4.21875 35.242188 -3.359375 34.234375 -2.578125 C 31.867188 -0.765625 29.882812 0.140625 28.28125 0.140625 C 26.582031 0.140625 25.382812 -0.304688 24.6875 -1.203125 C 24.46875 -1.472656 24.359375 -1.789062 24.359375 -2.15625 C 24.359375 -2.53125 24.421875 -2.960938 24.546875 -3.453125 C 24.679688 -3.941406 24.972656 -4.554688 25.421875 -5.296875 C 26.316406 -6.816406 27.625 -8.539062 29.34375 -10.46875 C 31.0625 -12.40625 32.175781 -13.707031 32.6875 -14.375 C 33.207031 -15.039062 33.632812 -15.617188 33.96875 -16.109375 C 34.570312 -17.066406 34.875 -17.785156 34.875 -18.265625 C 34.875 -18.972656 34.375 -19.328125 33.375 -19.328125 C 31.425781 -19.328125 28.050781 -16.882812 23.25 -12 C 21.195312 -9.9375 18.910156 -7.3125 16.390625 -4.125 L 13.671875 -0.5625 C 13.222656 -0.65625 12.65625 -0.703125 11.96875 -0.703125 C 10.863281 -0.703125 9.945312 -0.601562 9.21875 -0.40625 C 12.113281 -3.9375 13.707031 -5.890625 14 -6.265625 C 18.382812 -12.066406 20.8125 -15.347656 21.28125 -16.109375 C 21.925781 -17.222656 22.25 -17.992188 22.25 -18.421875 C 22.25 -19.023438 21.769531 -19.328125 20.8125 -19.328125 C 19.550781 -19.328125 18.070312 -18.644531 16.375 -17.28125 C 12.800781 -14.425781 8.59375 -10.039062 3.75 -4.125 Z M 1.03125 -0.5625 "/></g></g></g><g fill="#f45999" fill-opacity="1"><g transform="translate(578.386635, 107.188202)"><g><path d="M 11.3125 -2.53125 C 10.070312 -1.738281 8.734375 -1.085938 7.296875 -0.578125 C 5.867188 -0.078125 4.507812 0.171875 3.21875 0.171875 C 1.925781 0.171875 0.941406 0.0390625 0.265625 -0.21875 C -0.398438 -0.476562 -0.945312 -0.84375 -1.375 -1.3125 C -3.207031 -3.300781 -3.195312 -6.238281 -1.34375 -10.125 C -0.539062 -11.84375 0.664062 -13.410156 2.28125 -14.828125 C 3.90625 -16.242188 5.332031 -17.304688 6.5625 -18.015625 C 8.9375 -19.378906 11.171875 -20.0625 13.265625 -20.0625 C 15.335938 -20.0625 16.421875 -19.414062 16.515625 -18.125 C 16.648438 -16.039062 14.113281 -13.765625 8.90625 -11.296875 C 6.988281 -10.398438 4.578125 -9.472656 1.671875 -8.515625 C 0.515625 -6.640625 -0.0625 -5.113281 -0.0625 -3.9375 C -0.0625 -2.757812 0.242188 -1.921875 0.859375 -1.421875 C 1.472656 -0.921875 2.367188 -0.671875 3.546875 -0.671875 C 4.734375 -0.671875 6.015625 -0.925781 7.390625 -1.4375 C 8.765625 -1.945312 10.050781 -2.585938 11.25 -3.359375 C 12.457031 -4.140625 13.546875 -4.988281 14.515625 -5.90625 C 15.492188 -6.832031 16.359375 -7.710938 17.109375 -8.546875 C 17.867188 -9.390625 18.484375 -10.117188 18.953125 -10.734375 C 19.429688 -11.347656 19.757812 -11.734375 19.9375 -11.890625 L 20.5625 -11.390625 C 20.300781 -11.171875 19.910156 -10.726562 19.390625 -10.0625 C 18.878906 -9.40625 18.226562 -8.648438 17.4375 -7.796875 C 16.644531 -6.953125 15.734375 -6.0625 14.703125 -5.125 C 13.679688 -4.1875 12.550781 -3.320312 11.3125 -2.53125 Z M 2.34375 -9.546875 C 8.238281 -11.617188 12.035156 -13.675781 13.734375 -15.71875 C 14.296875 -16.40625 14.578125 -17.070312 14.578125 -17.71875 C 14.578125 -18.8125 14.070312 -19.359375 13.0625 -19.359375 C 11.257812 -19.359375 9.015625 -17.785156 6.328125 -14.640625 C 4.453125 -12.453125 3.125 -10.753906 2.34375 -9.546875 Z M 2.34375 -9.546875 "/></g></g></g></svg>